<?xml version="1.0" standalone="no"?>
<!DOCTYPE svg PUBLIC "-//W3C//DTD SVG 20010904//EN"
 "http://www.w3.org/TR/2001/REC-SVG-20010904/DTD/svg10.dtd">
<svg version="1.0" xmlns="http://www.w3.org/2000/svg"
 width="1080.000000pt" height="1080.000000pt" viewBox="0 0 1080.000000 1080.000000"
 preserveAspectRatio="xMidYMid meet">

<g transform="translate(0.000000,1080.000000) scale(0.100000,-0.100000)"
fill="#000000" stroke="none">
<path d="M287 10780 c-5 -21 -31 -27 -42 -10 -3 6 -18 10 -32 10 -25 0 -25 -1
-9 -19 17 -19 17 -20 -16 -26 -31 -6 -34 -10 -31 -33 3 -26 3 -27 -8 -4 -16
29 -43 28 -57 -3 -10 -21 -19 -25 -52 -25 l-40 0 0 -1165 c0 -729 4 -1165 9
-1165 12 0 131 -240 131 -263 0 -10 7 -20 15 -23 8 -4 15 -12 15 -19 0 -7 7
-18 15 -25 8 -7 15 -21 15 -31 0 -10 8 -24 17 -31 10 -7 24 -26 32 -43 34 -74
47 -97 68 -122 13 -14 23 -34 23 -43 0 -10 6 -23 14 -29 8 -7 22 -34 32 -62
10 -27 26 -51 36 -55 10 -3 28 -27 40 -55 13 -27 29 -49 37 -49 9 0 12 -8 9
-24 -3 -15 0 -27 8 -30 8 -3 14 -10 14 -16 0 -6 11 -26 24 -43 31 -42 56 -95
56 -119 0 -10 7 -21 15 -24 8 -4 15 -12 15 -20 0 -8 5 -14 10 -14 6 0 10 -6
10 -13 0 -8 9 -24 20 -37 11 -13 20 -33 20 -45 0 -12 16 -37 35 -56 19 -19 35
-40 35 -47 0 -8 9 -25 20 -39 11 -14 20 -35 20 -46 0 -12 11 -33 25 -47 18
-18 26 -39 27 -66 1 -21 8 -45 15 -52 8 -9 11 -23 7 -35 -6 -19 -5 -20 9 -9
14 12 18 9 31 -22 8 -20 22 -36 30 -36 11 0 16 -10 16 -32 0 -18 5 -40 10 -48
6 -10 10 -11 10 -2 0 6 5 12 11 12 6 0 9 -7 5 -15 -6 -18 21 -48 36 -39 7 5 8
2 4 -5 -5 -7 -1 -20 8 -29 33 -35 66 -80 66 -91 0 -5 18 -29 40 -51 22 -22 40
-45 40 -50 0 -17 40 -87 60 -105 11 -10 20 -28 20 -40 0 -13 7 -25 15 -28 8
-4 21 -22 29 -42 8 -19 28 -43 44 -52 16 -9 36 -30 46 -47 14 -24 19 -27 27
-15 7 11 10 10 15 -8 8 -30 26 -34 81 -18 27 8 59 15 72 15 18 0 22 4 18 20
-3 13 0 20 9 20 8 0 14 7 14 15 0 9 9 15 25 15 14 0 38 14 58 34 24 23 39 31
48 25 9 -5 21 -1 34 11 11 10 39 24 62 31 31 9 43 18 43 31 0 14 8 18 34 18
48 0 87 17 93 39 3 11 13 21 24 24 10 3 17 1 14 -3 -7 -11 36 0 55 14 32 24
79 46 98 46 12 0 24 5 27 10 3 6 20 10 37 10 18 0 41 8 52 18 12 10 47 25 79
32 31 7 57 17 57 22 0 4 21 8 48 9 26 0 41 3 35 6 -15 6 -18 33 -3 33 5 0 21
-5 35 -12 19 -9 28 -9 33 -1 4 6 24 14 45 18 20 4 37 11 37 16 0 5 22 9 49 9
31 0 53 5 61 15 7 8 21 15 31 15 32 0 99 31 99 46 0 8 -8 14 -17 14 -15 0 -16
2 -3 10 11 7 19 3 30 -15 17 -29 28 -32 36 -10 5 11 23 15 76 15 63 0 73 3 94
25 17 19 33 25 63 25 l40 0 -3 53 c-2 28 -1 35 1 15 2 -23 9 -38 18 -38 7 0
15 -7 19 -15 7 -19 46 -20 46 -1 0 8 3 16 7 19 5 2 2 2 -4 1 -9 -2 -13 10 -12
39 1 23 3 35 5 27 4 -13 26 -28 72 -47 7 -3 12 3 12 16 0 29 14 26 43 -9 29
-34 37 -37 37 -15 0 11 11 15 40 15 36 0 40 3 40 25 0 16 -6 25 -15 25 -11 0
-15 11 -15 40 0 29 4 40 15 40 8 0 15 8 15 17 0 14 2 15 13 4 10 -11 10 -14 0
-18 -8 -3 -13 -22 -13 -44 l0 -39 45 0 45 0 0 39 c0 22 6 44 15 51 10 9 15 9
15 1 0 -6 6 -11 14 -11 10 0 16 -14 19 -42 l4 -43 1 43 c2 41 2 42 39 42 29 0
44 8 73 38 34 34 41 37 84 34 41 -4 46 -2 46 17 0 18 6 21 43 23 l42 1 -45 7
-45 7 43 1 c30 2 42 6 42 17 0 9 10 15 26 15 14 0 23 4 19 10 -3 6 -15 10 -26
10 -10 0 -19 -4 -19 -10 0 -6 -27 -10 -60 -10 -73 0 -100 21 -100 76 0 36 1
36 32 30 37 -7 62 -26 35 -26 -19 0 -23 -15 -6 -25 14 -9 18 -4 25 32 5 24 1
35 -17 52 l-23 21 22 0 c15 0 22 -6 22 -20 0 -16 7 -20 30 -20 24 0 30 -4 31
-22 1 -17 2 -19 6 -5 6 23 83 25 83 2 0 -9 -10 -15 -26 -15 -14 0 -23 -4 -19
-10 12 -20 38 -9 71 29 32 36 36 38 84 33 41 -4 50 -2 50 11 0 11 -12 17 -42
20 l-43 4 41 1 c33 2 43 7 52 27 13 29 46 33 62 8 9 -16 10 -15 9 7 -2 47 0
50 44 52 l42 1 -45 7 -45 7 45 3 45 3 -45 7 -45 7 42 1 c23 1 43 8 46 15 3 6
10 -1 16 -16 13 -32 30 -32 42 1 7 18 5 22 -11 22 -17 0 -20 7 -20 40 0 29 -4
40 -15 40 -8 0 -15 7 -15 15 0 11 11 15 40 15 l40 0 0 -40 c0 -46 10 -50 38
-15 11 14 30 25 41 25 18 0 20 3 11 19 -5 11 -10 29 -10 40 0 10 -6 21 -12 24
-7 2 -10 8 -6 12 4 5 20 -5 34 -20 22 -24 28 -26 35 -13 6 11 22 14 61 12 29
-2 45 -1 36 2 -13 4 -18 16 -18 45 0 37 -2 39 -31 39 -20 0 -29 4 -26 13 4 13
134 18 260 9 72 -5 93 -22 27 -22 -29 0 -40 -4 -40 -15 0 -12 16 -15 80 -15
64 0 80 3 80 15 0 11 11 15 40 15 22 0 40 -5 40 -11 0 -5 5 -7 11 -3 18 11
-11 24 -53 24 -31 0 -38 4 -38 20 0 17 7 20 40 20 38 0 40 2 40 30 l0 30 80 0
c64 0 80 -3 80 -15 0 -9 9 -15 25 -15 22 0 25 4 25 34 0 19 3 41 6 50 12 32
24 15 24 -34 0 -38 4 -50 15 -50 11 0 15 11 15 40 0 36 3 40 25 40 31 0 33 17
3 22 -29 4 -30 32 -1 36 15 2 29 -7 44 -27 31 -43 45 -40 41 9 -3 25 0 40 7
40 6 0 11 -6 11 -14 0 -16 21 -26 56 -26 18 0 24 -5 24 -21 0 -20 4 -21 58
-17 31 3 49 3 40 1 -10 -3 -18 -11 -18 -19 0 -10 13 -14 43 -16 l42 -1 -45 -7
c-39 -6 -33 -7 38 -8 76 -2 82 -3 82 -23 0 -17 4 -20 23 -15 12 3 30 6 40 6 9
0 17 7 17 15 0 11 11 15 40 15 22 0 40 -4 40 -10 0 -5 18 -10 40 -10 22 0 40
5 40 10 0 15 26 12 40 -5 7 -8 28 -15 47 -15 24 0 41 -7 54 -22 l18 -23 1 23
c0 12 5 22 10 22 6 0 10 -9 10 -19 0 -29 18 -36 41 -15 11 10 19 12 19 6 0 -7
16 -12 40 -12 22 0 40 -4 40 -10 0 -5 18 -10 40 -10 22 0 40 -4 40 -10 0 -5
10 -10 23 -10 12 0 28 -9 35 -20 7 -12 17 -18 21 -15 5 2 26 -2 46 -11 21 -8
57 -14 81 -13 25 2 49 -2 56 -9 9 -9 7 -12 -9 -12 -26 0 -49 -25 -32 -35 6 -4
15 -2 19 5 9 14 73 6 126 -16 27 -11 34 -12 34 -2 1 7 10 2 21 -11 16 -20 24
-23 37 -14 14 8 20 5 34 -18 10 -16 30 -31 45 -34 15 -4 44 -13 63 -21 24 -11
36 -12 38 -4 2 6 17 1 37 -15 19 -14 41 -25 50 -25 27 0 57 -21 51 -36 -4 -11
4 -14 33 -14 24 0 41 -5 44 -14 3 -7 35 -24 71 -36 36 -13 66 -27 66 -32 0 -4
11 -8 25 -8 20 0 25 -5 25 -26 0 -18 4 -25 14 -21 8 3 22 -1 33 -8 10 -8 28
-11 41 -8 17 4 21 2 16 -10 -4 -11 9 -19 53 -33 32 -10 62 -24 66 -31 4 -7 13
-13 20 -13 7 0 18 -9 25 -20 7 -11 21 -20 32 -20 11 0 20 -4 20 -10 0 -5 7
-10 15 -10 8 0 20 -9 27 -20 7 -11 16 -20 21 -20 4 0 21 -14 37 -30 16 -17 34
-30 40 -30 6 0 13 -7 16 -15 4 -8 14 -15 24 -15 10 0 23 -7 30 -15 7 -8 18
-15 24 -14 28 3 36 -3 36 -26 0 -18 9 -29 38 -44 20 -11 43 -29 50 -40 7 -12
17 -21 22 -21 6 0 19 -9 31 -21 14 -14 29 -19 45 -16 13 2 24 0 24 -4 0 -5 -5
-9 -11 -9 -5 0 -8 -4 -4 -10 17 -27 63 38 46 67 -5 10 -3 33 5 59 11 38 11 44
-2 44 -11 0 -13 9 -8 40 5 32 4 40 -9 40 -11 0 -17 12 -20 38 -4 34 -4 34 -3
-7 0 -36 -4 -45 -24 -57 -35 -19 -51 -17 -84 12 -24 21 -28 30 -23 60 5 31 3
34 -18 34 -18 0 -24 7 -30 36 -3 20 -17 46 -31 59 -16 15 -24 33 -24 57 0 19
-4 38 -10 44 -5 5 -14 41 -20 79 -19 133 -36 165 -89 165 -17 0 -31 5 -31 11
0 5 -4 8 -9 5 -5 -3 -14 1 -21 9 -7 8 -21 15 -31 15 -24 0 -72 46 -74 70 -1
11 -12 31 -25 45 -13 14 -20 30 -16 40 3 9 -1 23 -9 31 -8 9 -15 24 -15 35 0
10 -5 19 -11 19 -6 0 -8 7 -5 16 4 10 -4 20 -22 31 -27 16 -82 85 -82 103 0 6
-9 10 -20 10 -11 0 -20 6 -20 13 0 8 -18 33 -39 56 -22 24 -42 50 -45 58 -3 8
-15 17 -26 20 -11 3 -20 9 -20 14 0 5 -24 25 -54 45 -30 20 -57 42 -60 50 -3
8 -12 14 -21 14 -8 0 -32 11 -53 24 -62 39 -340 168 -467 216 -11 5 -36 15
-57 24 -20 9 -41 16 -47 16 -12 0 -219 65 -258 81 -13 5 -33 13 -45 18 -41 16
-387 71 -451 71 -23 0 -60 5 -82 11 -57 15 -974 11 -1015 -4 -27 -10 -160 -15
-154 -6 3 5 -4 9 -15 9 -12 0 -21 -5 -21 -11 0 -7 -22 -10 -64 -8 -43 3 -69
-1 -80 -10 -9 -7 -16 -9 -16 -4 0 15 -130 7 -184 -11 -63 -22 -136 -22 -136 0
0 12 -5 14 -18 8 -22 -9 -231 -21 -243 -13 -5 3 -7 13 -3 22 5 13 1 17 -16 17
-16 0 -20 -4 -16 -18 10 -32 -26 -44 -76 -25 -23 9 -51 23 -60 31 -14 12 -21
12 -33 2 -8 -7 -24 -10 -35 -7 -11 3 -23 1 -26 -4 -3 -5 -30 -9 -60 -9 -45 0
-54 -3 -54 -17 -1 -17 -1 -17 -11 0 -13 21 -45 22 -57 1 -7 -13 -12 -14 -29
-3 -13 7 -28 9 -39 4 -11 -5 -23 -7 -27 -6 -4 0 -10 -6 -13 -14 -8 -19 -34
-19 -48 0 -10 13 -14 13 -40 0 -47 -25 -76 -17 -38 11 27 20 3 31 -53 25 l-50
-5 45 -7 45 -6 -42 -1 c-24 -1 -43 -7 -43 -13 0 -7 -12 -9 -36 -4 -25 4 -39 2
-44 -5 -6 -9 -16 -6 -38 10 -16 12 -35 20 -40 16 -5 -3 -15 1 -22 9 -17 21
-21 20 -69 -25 -23 -22 -47 -40 -52 -40 -5 0 -28 20 -51 43 -41 42 -45 44 -97
41 -29 -1 -59 -8 -64 -13 -6 -6 -19 -11 -29 -11 -10 0 -18 -5 -18 -12 0 -6 -9
-3 -20 7 -17 15 -22 16 -36 4 -9 -8 -24 -14 -32 -14 -8 0 -17 -6 -19 -12 -3
-7 2 -13 11 -13 9 0 16 -7 16 -15 0 -18 -2 -18 -34 -4 -13 6 -22 17 -19 24 7
20 -33 37 -75 32 l-37 -4 43 -1 c23 -1 42 -6 42 -12 0 -5 -19 -11 -42 -11 -41
-1 -42 -2 -13 -10 26 -7 25 -8 -10 -4 -22 3 -46 5 -52 5 -7 0 -13 6 -13 14 0
8 -6 16 -12 19 -18 6 -58 -10 -58 -24 0 -8 -11 -9 -32 -5 -21 4 -39 1 -57 -10
-17 -12 -26 -13 -29 -6 -3 9 -9 9 -23 2 -27 -15 -211 -22 -220 -9 -10 16 -79
-21 -79 -43 0 -20 -20 -24 -37 -7 -5 5 -34 12 -64 13 -48 3 -49 3 -14 -4 l40
-7 -41 -1 c-22 -1 -43 -5 -47 -8 -11 -11 4 -33 19 -27 17 6 19 -11 2 -25 -19
-14 -48 0 -96 48 -35 35 -45 40 -57 30 -8 -7 -15 -18 -15 -24 0 -19 -88 -11
-110 9 -11 10 -28 15 -40 12 -22 -6 -27 12 -9 30 18 18 4 38 -43 63 -23 12
-46 27 -50 33 -4 7 -12 6 -23 -3 -15 -13 -20 -12 -35 8 l-18 22 -11 -31 c-8
-24 -15 -30 -28 -24 -31 13 -82 11 -87 -2 -7 -16 -36 -17 -36 -2 0 13 -29 38
-44 39 -4 0 -5 -12 -2 -26 7 -25 6 -26 -34 -20 -22 3 -58 9 -79 12 -23 3 -42
1 -46 -5 -9 -15 -35 -14 -35 2 0 6 -11 25 -24 42 -20 25 -26 28 -40 16 -11
-10 -16 -10 -16 -2 0 16 -52 10 -58 -6 -2 -7 3 -13 12 -13 18 0 22 -25 4 -36
-6 -4 -16 0 -23 9 -7 9 -14 14 -17 11 -10 -9 -56 18 -69 42 -14 28 -19 29 -43
11 -16 -12 -17 -15 -3 -29 20 -20 6 -42 -22 -33 -11 3 -21 11 -21 16 0 5 -7 9
-17 9 -15 0 -15 2 1 19 23 25 11 31 -77 38 -57 4 -75 2 -85 -10 -10 -12 -10
-18 3 -31 15 -15 15 -16 -2 -18 -42 -3 -78 5 -89 20 -11 14 -16 15 -33 5 -15
-10 -20 -10 -24 0 -3 8 -10 7 -24 -5 -23 -21 -53 -23 -53 -4 0 8 -7 16 -15 20
-43 16 8 88 76 106 31 9 39 14 28 21 -10 6 -7 9 13 9 16 0 34 10 46 25 17 21
28 25 70 25 38 0 61 6 88 25 20 14 42 25 49 25 7 0 18 6 24 14 7 8 20 12 30 9
20 -5 74 24 66 37 -2 4 9 17 25 28 22 16 44 22 84 22 35 0 60 5 70 15 8 8 21
15 29 15 8 0 20 7 27 14 6 8 28 20 48 27 20 7 40 16 43 21 3 5 30 13 61 17 54
9 143 45 154 62 3 5 12 9 20 9 9 0 32 17 52 39 41 43 109 81 145 81 13 0 50
14 83 30 51 27 68 30 131 29 46 -1 73 -6 73 -13 0 -6 5 -3 11 7 5 9 15 17 20
17 23 0 119 52 119 65 0 7 15 15 33 18 17 3 67 14 111 26 43 12 88 21 99 21
11 0 45 12 75 26 29 14 75 29 102 33 26 4 64 17 84 29 21 12 46 22 56 22 35 0
52 11 39 26 -9 11 -6 14 17 15 70 2 140 10 173 19 20 5 49 10 64 10 16 0 52
11 80 24 68 32 225 65 331 70 47 2 121 45 131 76 3 11 10 20 14 20 10 0 38 28
91 91 79 94 189 199 209 199 5 0 23 14 39 30 17 17 38 30 46 30 9 0 16 4 16 9
0 5 13 14 30 21 27 11 95 57 164 111 36 29 82 56 119 70 15 6 27 15 27 20 0 5
8 9 18 9 20 0 190 57 207 69 21 14 89 33 168 46 45 7 118 20 162 28 187 35
213 37 440 32 257 -5 345 -10 425 -24 30 -6 82 -12 115 -15 109 -9 442 -99
535 -144 84 -41 195 -100 215 -115 5 -4 30 -22 53 -40 24 -17 58 -42 75 -55
18 -13 47 -37 64 -53 18 -16 35 -29 37 -29 3 0 45 -39 95 -87 l89 -88 94 -18
c70 -13 114 -16 181 -11 63 5 87 4 87 -5 0 -6 13 -11 28 -11 15 0 32 -4 38 -9
11 -11 132 -23 259 -26 125 -3 308 -24 330 -36 6 -4 38 -2 72 4 51 9 70 8 113
-6 38 -13 57 -14 71 -6 23 12 58 6 141 -22 40 -13 64 -16 81 -10 26 10 89 1
157 -24 33 -12 62 -14 107 -9 51 5 70 3 105 -14 80 -38 223 -71 281 -65 37 4
62 1 83 -9 16 -9 54 -21 84 -28 30 -6 81 -20 113 -31 31 -10 71 -19 87 -19 17
0 49 -9 70 -20 24 -12 70 -23 117 -27 48 -3 109 -17 158 -35 58 -22 92 -28
122 -25 42 4 83 -10 153 -55 15 -9 58 -18 103 -21 43 -3 84 -10 90 -15 7 -5
43 -17 82 -26 38 -10 72 -21 75 -26 3 -4 59 -36 125 -70 66 -35 136 -73 155
-86 19 -13 39 -24 45 -24 6 0 20 -8 31 -17 30 -26 54 -41 104 -63 25 -11 59
-28 75 -37 17 -9 39 -21 50 -27 11 -6 42 -30 70 -53 27 -24 53 -43 57 -43 5 0
8 446 8 990 l0 990 -4621 0 c-3077 0 -4618 -3 -4614 -10 3 -5 13 -10 21 -10 8
0 14 -9 14 -19 0 -11 11 -32 25 -47 28 -30 32 -49 11 -57 -8 -3 -12 -14 -10
-25 6 -22 -18 -45 -42 -40 -27 5 -28 27 -2 37 20 7 17 9 -20 13 -28 2 -47 -1
-54 -9 -9 -11 -16 -7 -37 18 l-26 31 -6 -23 c-5 -18 -7 -14 -8 19 -1 31 3 42
14 42 13 0 13 3 3 20 -10 16 -10 24 0 40 12 20 10 20 -572 20 -575 0 -584 0
-589 -20z m-87 -114 c0 -16 -7 -26 -21 -29 -17 -4 -19 -3 -10 6 6 6 11 22 11
35 0 13 4 20 10 17 6 -3 10 -17 10 -29z m-120 -36 c0 -5 -2 -10 -4 -10 -3 0
-8 5 -11 10 -3 6 -1 10 4 10 6 0 11 -4 11 -10z m1066 -30 c8 0 14 9 14 20 0
11 5 20 10 20 6 0 10 -9 10 -20 0 -16 7 -20 30 -20 19 0 33 7 40 20 16 30 36
25 79 -19 26 -27 42 -36 49 -29 15 15 79 -11 113 -45 24 -24 51 -86 54 -122 0
-5 4 -15 8 -22 4 -6 4 -18 1 -26 -3 -8 -1 -18 5 -22 8 -4 6 -12 -5 -22 -9 -10
-14 -27 -12 -44 3 -21 -1 -31 -20 -40 -13 -7 -28 -21 -33 -31 -5 -10 -19 -18
-29 -18 -11 0 -20 -7 -20 -15 0 -11 -7 -14 -24 -9 -13 3 -33 1 -44 -5 -15 -8
-23 -7 -32 4 -10 12 -9 16 4 21 9 3 16 13 16 21 0 12 -9 13 -42 8 -33 -4 -39
-3 -25 5 9 6 17 15 17 20 0 15 -27 12 -33 -2 -3 -7 -3 1 0 18 4 24 0 37 -16
53 -12 12 -26 21 -31 21 -7 0 -7 6 -1 19 12 21 1 34 -36 45 -19 6 -23 14 -23
51 0 38 -5 48 -30 66 -37 28 -31 39 20 32 33 -5 40 -3 40 11 0 9 -4 16 -10 16
-5 0 -10 9 -10 20 0 11 -4 20 -10 20 -5 0 -10 -9 -10 -20 0 -11 -7 -20 -15
-20 -8 0 -15 4 -15 9 0 5 -2 21 -4 37 -2 16 -1 21 1 12 2 -10 11 -18 19 -18z
m377 -16 c4 -1 14 -2 22 -3 34 -3 12 -21 -25 -21 -43 0 -43 0 -34 24 3 9 11
13 18 9 6 -4 14 -8 19 -9z m-1428 -14 c3 -5 1 -10 -4 -10 -6 0 -11 5 -11 10 0
6 2 10 4 10 3 0 8 -4 11 -10z m1055 -130 c0 -30 -4 -40 -16 -40 -13 0 -14 3
-4 15 7 8 10 25 6 40 -4 14 -2 25 4 25 5 0 10 -18 10 -40z m1550 -60 c11 -21
-1 -60 -19 -60 -12 0 -20 36 -14 60 3 11 9 20 14 20 4 0 13 -9 19 -20z m60
-75 c16 -20 4 -53 -23 -58 -16 -3 -13 -5 10 -6 29 -1 33 -5 39 -37 5 -25 3
-39 -7 -44 -10 -7 -10 -11 0 -23 10 -12 10 -20 -1 -36 -7 -12 -17 -21 -23 -21
-5 -1 1 -7 14 -14 23 -13 23 -14 5 -24 -30 -16 -93 18 -68 37 5 3 15 14 22 23
18 22 -4 59 -33 54 -11 -2 -14 -1 -7 1 9 3 12 13 8 26 -3 11 -1 29 5 39 7 14
6 18 -6 18 -9 0 -15 -9 -15 -22 l-1 -23 -19 23 c-19 23 -19 23 12 53 21 20 38
28 52 24 12 -3 15 -2 9 1 -7 3 -13 10 -13 15 0 14 26 11 40 -6z m-31 -305 c4
0 13 6 20 13 19 19 75 -46 61 -73 -7 -13 -6 -20 3 -23 7 -3 4 -7 -8 -12 -11
-3 -28 -11 -37 -16 -26 -13 -48 -11 -48 5 0 8 11 17 25 20 14 4 25 13 25 21 0
9 -11 21 -25 27 -14 6 -25 17 -25 24 0 7 -5 14 -12 16 -7 3 -8 9 -3 19 8 12
10 11 13 -3 2 -10 7 -18 11 -18z m-13 -77 c-11 -11 -17 4 -9 23 7 18 8 18 11
1 2 -10 1 -21 -2 -24z m92 -63 c14 -23 5 -26 -20 -6 -21 16 -23 26 -5 26 7 0
18 -9 25 -20z m42 -220 c0 -5 -4 -10 -9 -10 -6 0 -13 5 -16 10 -3 6 1 10 9 10
9 0 16 -4 16 -10z m930 -1204 c0 -3 -4 -8 -10 -11 -5 -3 -10 -1 -10 4 0 6 5
11 10 11 6 0 10 -2 10 -4z m-3136 -32 c11 -30 6 -35 -18 -17 -16 12 -20 20
-12 25 17 11 23 10 30 -8z m380 10 c16 -6 23 -34 8 -34 -10 0 -32 22 -32 32 0
10 3 10 24 2z m1776 -4 c0 -5 -12 -10 -26 -10 -14 0 -23 4 -19 10 3 6 15 10
26 10 10 0 19 -4 19 -10z m-104 -25 c-19 -14 -36 -12 -36 6 0 5 12 9 28 9 26
-1 26 -1 8 -15z m2684 -637 c0 -5 -4 -8 -10 -8 -5 0 -10 10 -10 23 0 18 2 19
10 7 5 -8 10 -18 10 -22z m190 22 c0 -5 -4 -10 -10 -10 -5 0 -10 5 -10 10 0 6
5 10 10 10 6 0 10 -4 10 -10z m-252 -77 c2 -8 -5 -13 -17 -13 -12 0 -21 6 -21
16 0 18 31 15 38 -3z m-93 -3 c3 -5 -1 -10 -9 -10 -9 0 -16 5 -16 10 0 6 4 10
9 10 6 0 13 -4 16 -10z m98 -47 c-24 -2 -62 -2 -85 0 -24 2 -5 4 42 4 47 0 66
-2 43 -4z m-207 -35 c-3 -13 -6 -38 -6 -55 0 -30 -3 -33 -30 -33 -27 0 -30 3
-30 33 0 17 -3 42 -6 55 -6 20 -3 22 36 22 39 0 42 -2 36 -22z m-263 -5 c-18
-2 -48 -2 -65 0 -18 2 -4 4 32 4 36 0 50 -2 33 -4z m-163 -13 c0 -5 -4 -10
-10 -10 -5 0 -10 5 -10 10 0 6 5 10 10 10 6 0 10 -4 10 -10z m350 0 c0 -5 -18
-10 -40 -10 -22 0 -40 5 -40 10 0 6 18 10 40 10 22 0 40 -4 40 -10z m-97 -27
c-13 -2 -33 -2 -45 0 -13 2 -3 4 22 4 25 0 35 -2 23 -4z m-363 -53 c0 -5 -4
-10 -10 -10 -5 0 -10 -9 -10 -20 0 -11 -4 -20 -10 -20 -14 0 -12 28 3 45 14
17 27 19 27 5z m-80 -30 c0 -11 -4 -20 -10 -20 -5 0 -10 9 -10 20 0 11 5 20
10 20 6 0 10 -9 10 -20z m-37 -37 c-13 -2 -33 -2 -45 0 -13 2 -3 4 22 4 25 0
35 -2 23 -4z m-245 -200 c12 -3 22 -10 22 -15 0 -6 -8 -7 -17 -3 -10 4 -28 10
-40 12 -13 3 -23 10 -23 15 0 6 8 7 18 3 9 -4 27 -10 40 -12z m-58 -48 c0 -11
11 -15 40 -15 33 0 40 -3 40 -20 0 -17 -7 -20 -50 -20 -50 0 -54 4 -51 42 2
12 -7 18 -31 21 -29 3 -28 4 10 5 31 2 42 -2 42 -13z m-60 -65 c0 -5 -4 -10
-10 -10 -5 0 -10 -6 -10 -14 0 -10 14 -16 43 -19 l42 -4 -47 -1 c-49 -2 -56 5
-42 42 7 18 24 22 24 6z m-328 -90 c6 0 9 -2 6 -5 -12 -12 -37 7 -30 23 6 16
7 15 10 0 2 -10 8 -18 14 -18z m-52 -40 c0 -5 -9 -10 -20 -10 -11 0 -20 5 -20
10 0 6 9 10 20 10 11 0 20 -4 20 -10z m120 0 c0 -5 -4 -10 -10 -10 -5 0 -10 5
-10 10 0 6 5 10 10 10 6 0 10 -4 10 -10z m-72 -44 c-7 -8 -15 -12 -17 -11 -5
6 10 25 20 25 5 0 4 -6 -3 -14z m-38 -66 c0 -5 -4 -10 -10 -10 -5 0 -10 5 -10
10 0 6 5 10 10 10 6 0 10 -4 10 -10z m-320 -160 c0 -5 -4 -10 -10 -10 -5 0
-10 5 -10 10 0 6 5 10 10 10 6 0 10 -4 10 -10z m60 -4 c0 -2 -9 -6 -20 -9 -11
-3 -18 -1 -14 4 5 9 34 13 34 5z m-320 -106 c-6 -11 -15 -20 -20 -20 -6 0 -10
9 -10 20 0 13 7 20 20 20 18 0 19 -3 10 -20z"/>
<path d="M1186 10458 c-3 -13 -1 -27 4 -32 7 -7 10 1 10 22 0 37 -5 41 -14 10z"/>
<path d="M1505 10470 c3 -5 8 -10 11 -10 2 0 4 5 4 10 0 6 -5 10 -11 10 -5 0
-7 -4 -4 -10z"/>
<path d="M1520 10774 c0 -8 5 -12 10 -9 6 4 8 11 5 16 -9 14 -15 11 -15 -7z"/>
<path d="M80 10770 c0 -5 7 -10 15 -10 8 0 15 5 15 10 0 6 -7 10 -15 10 -8 0
-15 -4 -15 -10z"/>
<path d="M130 10770 c0 -5 7 -10 15 -10 8 0 15 5 15 10 0 6 -7 10 -15 10 -8 0
-15 -4 -15 -10z"/>
<path d="M1505 10730 c-3 -5 -1 -10 4 -10 6 0 11 5 11 10 0 6 -2 10 -4 10 -3
0 -8 -4 -11 -10z"/>
<path d="M18 10683 c12 -2 32 -2 45 0 12 2 2 4 -23 4 -25 0 -35 -2 -22 -4z"/>
<path d="M1343 8494 c-8 -20 17 -36 34 -22 10 8 10 14 2 24 -15 18 -28 18 -36
-2z"/>
<path d="M1090 8490 c-12 -8 -11 -10 8 -10 12 0 22 5 22 10 0 13 -11 13 -30 0z"/>
<path d="M800 8470 c0 -5 5 -10 10 -10 6 0 10 5 10 10 0 6 -4 10 -10 10 -5 0
-10 -4 -10 -10z"/>
<path d="M1425 8470 c3 -5 8 -10 11 -10 2 0 4 5 4 10 0 6 -5 10 -11 10 -5 0
-7 -4 -4 -10z"/>
<path d="M3175 8470 c3 -5 10 -10 16 -10 5 0 9 5 9 10 0 6 -7 10 -16 10 -8 0
-12 -4 -9 -10z"/>
<path d="M4103 8468 c2 -7 10 -13 17 -13 7 0 15 6 18 13 2 7 -5 12 -18 12 -13
0 -20 -5 -17 -12z"/>
<path d="M2880 8416 c0 -9 5 -16 10 -16 6 0 10 4 10 9 0 6 -4 13 -10 16 -5 3
-10 -1 -10 -9z"/>
<path d="M1426 8411 c-3 -5 1 -11 9 -14 9 -4 12 -1 8 9 -6 16 -10 17 -17 5z"/>
<path d="M1472 8353 c2 -10 13 -19 26 -21 17 -3 22 2 22 17 0 16 -6 21 -26 21
-19 0 -25 -5 -22 -17z"/>
<path d="M5600 7685 c0 -35 16 -47 26 -20 4 8 14 15 23 15 12 1 11 5 -8 20
-33 28 -41 25 -41 -15z"/>
<path d="M10 7703 c5 -2 8 -9 4 -14 -3 -5 0 -9 6 -9 15 0 7 23 -8 26 -7 1 -8
0 -2 -3z"/>
<path d="M13 7663 c-20 -7 -15 -31 7 -38 11 -3 25 -15 30 -26 15 -27 30 -24
30 6 0 43 -34 72 -67 58z"/>
<path d="M5657 7623 c-12 -11 -8 -23 8 -23 8 0 15 7 15 15 0 16 -12 20 -23 8z"/>
<path d="M6110 7592 c0 -10 33 -42 43 -42 4 0 7 11 7 25 0 20 -5 25 -25 25
-14 0 -25 -4 -25 -8z"/>
<path d="M101 7572 c-1 -8 -6 -10 -13 -6 -7 4 -6 -1 3 -11 13 -13 15 -24 9
-47 -8 -25 -6 -30 15 -38 28 -11 42 -30 22 -30 -8 0 -18 -7 -21 -16 -9 -22 -8
-24 9 -24 18 0 19 -11 3 -30 -7 -8 -4 -7 8 3 15 12 21 13 21 4 0 -27 37 -96
54 -100 12 -3 20 -19 24 -51 5 -29 15 -52 27 -60 10 -7 18 -20 16 -27 -2 -9 6
-14 24 -13 15 1 25 -3 22 -7 -2 -5 1 -17 8 -29 10 -16 10 -24 -1 -42 -12 -19
-11 -23 6 -37 11 -9 27 -33 37 -53 9 -20 24 -44 33 -53 13 -14 14 -18 3 -25
-10 -6 -3 -18 28 -48 30 -29 42 -49 42 -68 0 -42 42 -124 63 -124 11 0 17 -8
17 -23 0 -13 9 -32 20 -42 11 -10 20 -23 20 -30 0 -7 9 -20 20 -30 11 -10 20
-24 20 -31 0 -7 7 -17 15 -21 8 -5 16 -19 17 -33 2 -13 14 -34 27 -46 17 -14
24 -31 24 -55 0 -35 21 -60 44 -52 9 3 13 -4 13 -20 0 -16 10 -33 26 -44 25
-18 25 -20 9 -36 -13 -13 -13 -17 -2 -17 7 0 22 -19 33 -42 11 -24 25 -42 33
-40 7 1 10 -2 6 -7 -8 -13 23 -73 34 -66 12 7 41 -39 41 -65 0 -11 4 -20 9
-20 5 0 12 -18 16 -40 6 -36 9 -39 23 -28 12 10 14 10 8 1 -4 -8 -1 -13 8 -13
12 0 16 -11 16 -45 l0 -44 33 5 c17 3 27 2 22 -3 -17 -13 -17 -60 -1 -90 20
-38 89 -113 105 -113 7 0 9 -5 5 -12 -5 -8 -2 -9 10 -5 10 4 15 3 11 -3 -3 -6
-15 -10 -27 -10 -17 0 -18 -3 -8 -15 7 -8 16 -12 21 -9 5 3 14 2 20 -2 8 -4 7
-9 -2 -15 -10 -6 -4 -9 18 -9 27 0 32 -4 38 -31 4 -17 16 -40 26 -50 11 -11
17 -24 13 -30 -16 -26 33 -108 57 -93 8 4 9 3 5 -4 -4 -7 -3 -12 2 -12 4 0 14
-15 22 -34 7 -19 24 -39 38 -45 21 -10 22 -14 11 -28 -10 -12 -10 -15 -1 -9 6
4 12 2 12 -4 0 -6 12 -16 26 -22 21 -10 25 -18 22 -40 -3 -15 -2 -28 1 -28 3
0 15 -21 25 -48 11 -26 32 -63 48 -82 15 -19 28 -40 28 -46 0 -6 9 -19 20 -29
11 -10 20 -24 20 -32 0 -7 5 -13 10 -13 6 0 10 -8 10 -18 0 -10 10 -29 22 -41
21 -23 44 -65 120 -214 21 -43 43 -75 49 -72 5 4 9 1 9 -4 0 -6 -4 -11 -10
-11 -5 0 -10 -7 -10 -15 0 -8 7 -15 15 -15 8 0 15 -6 15 -14 0 -7 7 -19 15
-26 8 -7 15 -21 15 -32 0 -21 29 -66 74 -115 17 -18 27 -33 23 -33 -4 0 1 -10
13 -22 11 -12 20 -30 20 -40 0 -10 7 -21 15 -24 8 -4 15 -15 15 -26 0 -25 16
-57 48 -90 31 -33 54 -91 56 -135 0 -18 4 -33 9 -33 4 0 5 -4 2 -10 -3 -5 0
-7 8 -4 11 4 20 -9 32 -45 9 -27 23 -55 31 -61 7 -7 14 -17 14 -23 0 -6 10
-22 23 -35 12 -14 15 -22 7 -18 -13 6 -13 5 0 -6 23 -19 70 -114 62 -123 -4
-5 -2 -5 5 -1 8 4 21 -9 35 -35 37 -68 46 -81 55 -88 14 -11 53 -95 57 -126 2
-16 5 -31 6 -32 2 -2 3 -8 4 -15 0 -6 15 -19 31 -28 17 -9 31 -24 33 -34 2 -9
19 -40 38 -69 19 -29 37 -62 40 -74 4 -13 10 -23 15 -23 5 0 9 -5 9 -10 0 -6
9 -20 20 -32 11 -12 20 -29 20 -38 0 -8 6 -24 14 -35 7 -11 17 -31 21 -45 4
-14 15 -32 24 -40 10 -8 25 -33 36 -55 10 -22 29 -54 42 -71 12 -17 23 -34 23
-37 0 -3 13 -26 30 -50 16 -25 30 -50 30 -56 0 -6 4 -11 8 -11 5 0 18 -22 30
-49 12 -27 26 -52 32 -56 5 -3 10 -17 10 -31 0 -13 6 -24 13 -24 13 0 47 -53
47 -74 0 -7 6 -18 12 -25 7 -6 13 -15 13 -19 1 -4 12 -25 26 -47 31 -48 109
-210 109 -224 0 -6 5 -11 10 -11 6 0 10 -8 10 -18 0 -9 9 -23 20 -29 10 -7 22
-28 25 -47 4 -19 20 -47 36 -63 16 -15 29 -35 29 -44 0 -9 7 -22 15 -29 8 -7
15 -19 15 -28 0 -8 9 -24 20 -36 46 -47 80 -95 83 -115 2 -12 9 -27 15 -33 7
-7 12 -18 12 -25 0 -7 5 -13 10 -13 6 0 10 -6 10 -14 0 -23 97 -201 109 -198
6 1 11 -6 11 -15 0 -10 9 -29 20 -43 11 -14 20 -35 20 -47 0 -13 6 -23 14 -23
16 0 31 -34 22 -49 -3 -5 0 -14 8 -20 8 -7 17 -24 21 -38 3 -15 15 -39 26 -54
10 -15 19 -30 19 -34 0 -3 6 -13 12 -20 7 -7 24 -32 37 -53 15 -25 29 -38 38
-35 11 4 11 0 3 -21 -7 -21 -7 -26 5 -26 16 0 45 -60 45 -91 0 -11 5 -19 10
-19 6 0 10 -8 10 -18 0 -10 11 -29 25 -42 14 -13 25 -29 25 -36 0 -7 8 -18 19
-23 15 -9 24 -31 32 -79 1 -7 14 -36 41 -87 9 -16 26 -49 38 -72 14 -28 28
-43 41 -43 17 0 26 -26 20 -62 0 -4 5 -5 13 -2 21 8 42 -61 26 -81 -11 -13 -8
-15 18 -15 26 0 31 -5 37 -29 11 -49 20 -52 191 -49 l159 3 -32 32 c-18 18
-33 38 -33 45 0 6 -8 21 -19 32 -10 12 -27 44 -37 71 -18 50 -65 136 -91 167
-15 17 -45 69 -85 147 -13 24 -36 58 -51 74 -15 17 -44 64 -65 106 -20 42 -53
104 -74 139 -21 34 -38 67 -38 72 0 6 -4 10 -9 10 -9 0 -65 88 -100 157 -12
24 -25 43 -30 43 -5 0 -39 54 -76 120 -36 66 -74 125 -83 132 -17 13 -72 117
-72 136 0 10 -72 114 -105 152 -12 14 -37 61 -56 105 -18 44 -49 105 -69 136
-79 126 -102 159 -111 159 -5 0 -9 9 -9 20 0 11 -11 38 -25 60 -14 22 -25 43
-25 46 0 9 -100 166 -117 182 -7 7 -13 17 -13 22 0 5 -6 15 -12 22 -16 17 -48
77 -48 88 0 11 -63 114 -72 118 -5 2 -8 8 -8 13 0 6 -16 35 -35 65 -19 30 -35
59 -35 64 0 5 -13 24 -28 42 -30 34 -102 153 -102 167 0 5 -7 14 -15 21 -8 6
-33 49 -55 95 -22 46 -47 89 -55 95 -8 7 -15 18 -15 25 0 6 -22 44 -50 83 -27
39 -50 74 -50 77 0 3 -9 15 -20 27 -11 12 -20 30 -20 40 0 10 -7 21 -15 24 -8
4 -15 10 -15 16 0 5 -11 24 -24 41 -13 18 -54 86 -90 152 -37 66 -71 127 -76
135 -6 8 -13 22 -17 30 -9 19 -78 129 -98 155 -30 38 -65 96 -65 105 0 6 -4
10 -8 10 -4 0 -20 25 -36 55 -15 30 -32 57 -37 61 -6 3 -14 16 -20 27 -5 12
-25 49 -44 82 -19 33 -43 77 -55 98 -11 20 -25 37 -30 37 -6 0 -10 7 -10 15 0
8 -3 15 -7 15 -5 0 -17 19 -28 43 -11 23 -25 46 -32 50 -7 4 -13 12 -13 18 0
5 -12 28 -27 52 -15 23 -36 58 -45 77 -19 37 -61 105 -115 186 -18 27 -38 66
-45 87 -6 20 -15 37 -20 37 -5 0 -16 16 -24 35 -8 20 -24 45 -35 56 -12 12
-32 46 -46 76 -14 30 -31 57 -38 60 -8 2 -24 23 -35 46 -12 23 -31 50 -41 60
-10 10 -19 26 -19 36 0 10 -13 38 -30 62 -16 24 -30 50 -30 57 0 6 -4 12 -9
12 -5 0 -11 9 -14 20 -3 11 -16 24 -29 29 -23 9 -78 100 -78 130 0 17 -40 90
-62 113 -10 10 -18 22 -18 28 0 5 -11 19 -24 32 -27 26 -68 104 -86 163 -7 22
-16 42 -19 45 -8 7 -29 40 -43 70 -7 14 -18 32 -25 40 -7 9 -23 37 -37 62 -13
25 -47 81 -75 123 -28 42 -51 80 -51 84 0 4 -9 16 -19 25 -11 10 -22 29 -26
44 -9 35 -78 150 -113 187 -16 17 -36 42 -46 58 -10 15 -25 27 -33 27 -9 0
-12 6 -9 18 4 12 -4 29 -22 48 -15 16 -34 49 -42 74 -7 25 -20 52 -27 61 -7 8
-13 21 -13 27 0 7 -7 12 -15 12 -9 0 -15 9 -15 24 0 34 -64 103 -82 89 -29
-22 -44 -21 -46 3 -1 13 3 24 9 24 8 0 8 4 -1 15 -6 8 -9 18 -6 23 9 16 -21
114 -38 124 -9 5 -16 15 -16 23 0 8 -10 25 -22 38 -62 65 -96 106 -90 111 3 3
0 6 -7 6 -7 0 -10 4 -7 9 4 5 2 20 -3 33 -6 12 -10 17 -10 10z"/>
<path d="M5920 7545 c0 -9 6 -12 15 -9 8 4 15 10 15 15 0 5 -7 9 -15 9 -8 0
-15 -7 -15 -15z"/>
<path d="M5681 7534 c0 -11 3 -14 6 -6 3 7 2 16 -1 19 -3 4 -6 -2 -5 -13z"/>
<path d="M50 7511 c0 -5 7 -11 15 -15 9 -3 15 0 15 9 0 8 -7 15 -15 15 -8 0
-15 -4 -15 -9z"/>
<path d="M4880 7504 c0 -9 5 -14 12 -12 18 6 21 28 4 28 -9 0 -16 -7 -16 -16z"/>
<path d="M5305 7510 c3 -5 8 -10 11 -10 2 0 4 5 4 10 0 6 -5 10 -11 10 -5 0
-7 -4 -4 -10z"/>
<path d="M4948 7469 c-22 -12 -23 -29 -3 -29 8 0 15 7 15 15 0 11 18 15 83 18
l82 3 -80 2 c-44 1 -88 -3 -97 -9z"/>
<path d="M5200 7450 c0 -5 5 -10 11 -10 5 0 7 5 4 10 -3 6 -8 10 -11 10 -2 0
-4 -4 -4 -10z"/>
<path d="M4990 7420 c0 -11 5 -20 10 -20 6 0 10 9 10 20 0 11 -4 20 -10 20 -5
0 -10 -9 -10 -20z"/>
<path d="M5250 7425 c7 -8 16 -15 21 -15 5 0 9 7 9 15 0 9 -9 15 -21 15 -18 0
-19 -2 -9 -15z"/>
<path d="M4880 7400 c0 -13 5 -20 13 -17 6 2 12 10 12 17 0 7 -6 15 -12 18 -8
2 -13 -5 -13 -18z"/>
<path d="M4708 7380 c-9 -29 16 -40 58 -25 l39 14 -42 1 c-24 0 -43 5 -45 13
-3 8 -6 8 -10 -3z"/>
<path d="M6960 7344 c0 -8 5 -12 10 -9 6 3 10 10 10 16 0 5 -4 9 -10 9 -5 0
-10 -7 -10 -16z"/>
<path d="M7020 7351 c0 -6 5 -13 10 -16 6 -3 10 1 10 9 0 9 -4 16 -10 16 -5 0
-10 -4 -10 -9z"/>
<path d="M4560 7259 c0 -18 2 -19 15 -9 8 7 15 16 15 21 0 5 -7 9 -15 9 -9 0
-15 -9 -15 -21z"/>
<path d="M4348 7123 c6 -2 18 -2 25 0 6 3 1 5 -13 5 -14 0 -19 -2 -12 -5z"/>
<path d="M4258 7073 c12 -2 32 -2 45 0 12 2 2 4 -23 4 -25 0 -35 -2 -22 -4z"/>
<path d="M4510 7050 c0 -5 5 -10 10 -10 6 0 10 5 10 10 0 6 -4 10 -10 10 -5 0
-10 -4 -10 -10z"/>
<path d="M3938 6843 c12 -2 32 -2 45 0 12 2 2 4 -23 4 -25 0 -35 -2 -22 -4z"/>
<path d="M3680 6671 c0 -21 5 -31 15 -31 8 0 15 8 15 19 0 10 -7 24 -15 31
-13 11 -15 8 -15 -19z"/>
<path d="M3715 6630 c-3 -5 -1 -10 4 -10 6 0 11 5 11 10 0 6 -2 10 -4 10 -3 0
-8 -4 -11 -10z"/>
<path d="M3218 6593 c12 -2 32 -2 45 0 12 2 2 4 -23 4 -25 0 -35 -2 -22 -4z"/>
<path d="M8560 6401 c0 -11 4 -21 9 -21 18 0 21 18 6 30 -13 10 -15 9 -15 -9z"/>
<path d="M8625 6410 c-3 -5 -1 -10 4 -10 6 0 11 5 11 10 0 6 -2 10 -4 10 -3 0
-8 -4 -11 -10z"/>
<path d="M7385 6230 c-33 -5 -64 -6 -68 -3 -5 3 -16 -2 -25 -10 -9 -8 -34 -18
-54 -22 -20 -4 -39 -13 -42 -21 -5 -14 -53 -39 -68 -36 -5 1 -8 -2 -8 -8 0 -5
-23 -31 -51 -57 -28 -27 -55 -57 -60 -68 -12 -24 -26 -47 -61 -100 -14 -22
-32 -60 -39 -85 -7 -25 -16 -49 -21 -54 -4 -6 -8 -16 -8 -23 0 -22 42 -73 60
-73 25 0 87 37 129 78 58 56 102 92 113 92 6 0 26 14 45 30 18 17 40 30 47 30
7 0 27 7 44 16 35 17 57 11 46 -15 -3 -9 -6 -31 -5 -50 1 -19 -3 -37 -9 -41
-14 -8 -21 -110 -21 -310 -1 -136 3 -169 26 -265 70 -283 260 -481 481 -502
41 -4 64 -2 68 6 4 6 17 11 30 11 70 0 159 80 210 190 53 116 59 150 52 280
-8 126 -8 126 -24 190 -26 99 -35 127 -53 165 -10 22 -20 47 -24 55 -3 8 -15
31 -26 50 -12 19 -30 50 -40 69 -10 19 -22 37 -27 40 -4 3 -20 26 -34 51 -14
25 -38 59 -52 75 -14 17 -51 60 -83 98 -31 37 -60 67 -63 67 -4 0 -30 23 -58
50 -28 28 -57 50 -64 50 -6 0 -21 8 -32 19 -40 36 -114 46 -231 31z"/>
<path d="M0 3066 l0 -3066 1750 0 c1518 0 1751 2 1756 14 8 20 -26 65 -48 66
-11 0 -21 14 -29 40 -7 22 -16 40 -21 40 -4 0 -8 6 -8 13 0 8 -9 22 -19 31
-15 13 -20 14 -24 4 -3 -7 -6 -1 -6 13 -1 14 -10 34 -21 44 -11 10 -20 26 -20
37 0 10 -7 18 -15 18 -8 0 -15 7 -15 16 0 9 -8 28 -19 42 -10 15 -24 44 -32
65 -7 20 -16 37 -19 37 -3 0 -16 18 -30 40 -14 22 -28 40 -32 40 -5 0 -8 7 -8
15 0 9 -7 18 -16 22 -8 3 -13 12 -10 20 7 17 -21 63 -39 63 -7 0 -15 15 -19
33 -5 22 -9 28 -15 19 -5 -9 -10 0 -15 27 -3 23 -10 41 -15 41 -4 0 -14 18
-21 40 -7 22 -18 40 -24 40 -11 0 -23 21 -71 123 -10 20 -24 37 -32 37 -7 0
-13 6 -13 13 0 26 -47 123 -73 151 -15 16 -30 40 -33 53 -4 13 -10 23 -15 23
-5 0 -9 6 -9 14 0 7 -6 19 -14 25 -7 6 -16 24 -19 40 -4 18 -15 32 -27 36 -21
7 -26 20 -10 30 15 9 -31 95 -51 95 -12 0 -19 12 -24 40 -5 29 -12 40 -25 40
-13 0 -20 11 -25 36 -7 39 -41 100 -69 123 -9 8 -16 28 -16 48 0 25 -5 36 -17
40 -10 2 -33 37 -53 79 -19 41 -38 74 -42 74 -5 0 -8 7 -8 15 0 9 -6 18 -14
21 -8 3 -19 18 -25 32 -6 15 -29 52 -51 82 -22 30 -40 62 -40 71 0 8 -7 24
-15 35 -8 10 -15 27 -15 37 0 9 -5 17 -11 17 -5 0 -8 4 -5 9 3 4 -6 19 -19 31
-14 13 -25 29 -25 37 0 7 -4 13 -10 13 -5 0 -10 5 -10 11 0 6 -9 22 -20 36
-11 14 -20 34 -20 44 0 10 -8 26 -18 36 -11 10 -27 40 -38 67 -10 26 -29 55
-41 63 -16 11 -23 25 -23 47 0 22 -8 40 -25 56 -14 13 -25 27 -25 31 0 13 -19
52 -45 94 -13 22 -34 59 -46 82 -11 23 -26 44 -33 46 -7 3 -21 27 -31 54 -10
26 -27 58 -37 70 -11 12 -17 26 -14 31 3 6 0 17 -8 24 -7 8 -16 23 -20 35 -4
12 -13 27 -21 33 -8 7 -15 20 -15 30 0 10 -7 20 -15 24 -8 3 -15 14 -15 24 0
11 -19 40 -41 66 -23 26 -39 50 -35 53 3 4 6 1 6 -5 0 -7 5 -12 10 -12 15 0
12 30 -2 30 -18 1 -88 104 -88 129 0 11 -14 36 -30 54 -17 19 -30 42 -30 51 0
9 -4 16 -10 16 -5 0 -10 7 -10 15 0 14 -16 42 -74 125 -14 19 -25 41 -25 48
-1 6 -5 12 -11 12 -5 0 -10 8 -10 19 0 10 -7 24 -15 31 -8 7 -15 18 -15 24 0
6 -9 17 -20 24 -14 9 -20 23 -20 50 0 41 -7 56 -31 64 -8 3 -24 28 -34 54 -23
60 -54 114 -66 114 -5 0 -9 7 -9 15 0 8 -8 24 -18 34 -32 36 -39 46 -35 57 2
6 -3 17 -12 24 -8 7 -15 21 -15 31 0 11 -4 19 -10 19 -5 0 -10 6 -10 14 0 8
-6 21 -12 28 -7 7 -24 37 -38 65 -14 29 -28 53 -32 53 -5 0 -8 11 -8 25 0 14
-4 25 -10 25 -5 0 -12 11 -16 24 -3 14 -14 32 -25 42 -10 9 -19 23 -19 31 0 7
-4 13 -8 13 -4 0 -8 10 -9 21 -1 12 -9 29 -17 38 -9 10 -16 24 -16 32 0 8 -14
29 -30 47 -16 18 -30 39 -30 45 0 7 -7 21 -15 31 -8 11 -15 30 -15 43 0 13
-11 35 -25 49 -14 14 -25 32 -25 40 0 8 -10 31 -23 52 -13 20 -26 45 -30 55
-3 9 -10 17 -16 17 -5 0 -11 8 -15 18 -3 9 -10 24 -15 32 -5 8 -21 40 -35 70
-14 30 -26 48 -26 40 0 -8 -24 38 -52 103 -29 64 -58 117 -65 117 -16 0 -29
26 -38 73 -4 20 -11 37 -15 37 -12 0 -52 58 -55 79 -4 29 -17 61 -25 61 -9 0
-50 66 -50 80 0 6 -7 18 -15 27 -8 10 -15 23 -16 28 0 6 -8 19 -19 30 -10 11
-20 29 -22 39 -1 11 -9 21 -15 24 -10 3 -13 -614 -13 -3062z"/>
<path d="M4169 6000 c-25 -4 -54 -13 -65 -18 -10 -6 -48 -25 -84 -42 -36 -17
-78 -41 -92 -53 -15 -12 -46 -33 -69 -47 -46 -28 -156 -133 -204 -196 -18 -23
-44 -55 -59 -70 -14 -16 -26 -32 -26 -37 0 -4 -22 -42 -48 -85 -56 -90 -90
-166 -107 -240 -11 -47 -11 -55 5 -75 l18 -22 56 60 c31 33 63 74 71 92 9 18
20 35 25 38 5 3 29 36 54 73 56 84 190 228 265 284 31 23 61 47 66 53 18 19
64 45 80 45 8 0 15 5 15 10 0 13 53 13 67 -1 8 -8 3 -24 -15 -57 -14 -26 -31
-52 -37 -58 -18 -19 -72 -146 -93 -219 -63 -214 -48 -407 46 -612 46 -101 138
-205 216 -243 25 -13 46 -27 46 -31 0 -3 33 -16 73 -29 39 -12 82 -26 95 -31
31 -12 141 -11 221 2 65 10 107 25 164 54 16 8 33 15 38 15 6 0 22 12 37 26
15 14 39 33 55 42 15 9 27 20 27 24 0 4 7 8 15 8 8 0 15 7 15 15 0 7 6 18 13
22 38 25 91 139 108 238 28 157 3 287 -94 485 -18 36 -37 70 -43 75 -7 6 -18
22 -25 36 -19 36 -66 96 -114 144 -54 54 -153 139 -168 144 -6 2 -41 24 -77
49 -79 54 -170 99 -219 108 -20 4 -40 10 -46 14 -16 11 -155 18 -206 10z"/>
<path d="M6458 5561 c-19 -16 -22 -27 -20 -75 1 -30 7 -67 12 -81 6 -15 10
-62 10 -105 0 -68 -3 -81 -19 -90 -12 -6 -104 -10 -233 -10 l-213 1 -18 24
c-10 14 -29 66 -42 115 -26 101 -44 136 -80 152 -20 9 -29 8 -44 -6 -29 -27
-33 -63 -17 -148 8 -43 18 -126 22 -185 6 -99 4 -115 -17 -173 -13 -36 -29
-76 -36 -90 -7 -14 -13 -28 -13 -32 0 -4 -11 -31 -24 -60 -13 -29 -34 -78 -46
-108 -31 -76 -82 -184 -90 -190 -3 -3 -12 -19 -19 -36 -7 -18 -20 -40 -30 -50
-9 -11 -27 -36 -39 -56 -29 -46 -151 -161 -228 -213 -89 -61 -221 -121 -294
-135 -36 -6 -84 -16 -107 -21 -137 -30 -592 12 -808 75 -49 15 -106 30 -125
35 -58 13 -262 94 -456 182 -23 11 -46 19 -52 19 -6 0 -12 3 -14 8 -1 4 -28
20 -58 36 -30 16 -87 48 -127 72 -84 51 -113 60 -142 44 -24 -12 -28 -55 -8
-81 17 -23 144 -119 157 -119 5 0 10 -4 10 -8 0 -4 14 -17 32 -27 80 -50 126
-76 158 -91 44 -20 99 -47 125 -62 11 -6 49 -25 85 -42 36 -18 83 -45 104 -61
33 -24 50 -29 95 -29 33 0 97 -13 155 -30 55 -17 109 -30 121 -30 11 0 25 -4
31 -9 5 -5 25 -12 44 -15 19 -3 62 -10 95 -16 145 -26 188 -30 330 -30 297 0
407 24 595 129 19 10 47 25 62 32 15 7 36 19 45 28 10 9 38 30 62 46 119 81
280 261 334 374 18 36 35 68 38 71 10 9 109 220 109 233 0 8 3 16 6 19 3 4 20
49 38 102 39 111 58 144 89 150 100 21 311 56 352 58 28 2 56 7 63 11 16 10
110 -1 118 -14 3 -5 13 -9 22 -9 9 0 89 -73 177 -163 324 -329 547 -519 704
-597 107 -54 106 -53 221 -92 85 -28 107 -31 205 -31 105 1 120 3 155 16 57
21 124 37 154 37 29 0 45 10 104 68 38 37 91 94 119 127 47 57 143 204 143
219 0 4 9 16 19 28 24 25 50 133 41 168 -11 44 -34 34 -64 -27 -122 -254 -229
-379 -387 -456 -119 -57 -166 -66 -309 -57 -102 6 -124 11 -195 42 -186 83
-208 95 -322 183 -106 82 -154 127 -399 375 -253 256 -236 235 -305 372 -5 10
-9 27 -9 39 0 34 -50 211 -68 243 -23 40 -55 50 -84 27z"/>
<path d="M10765 5347 c-10 -7 -37 -23 -60 -37 -22 -13 -56 -33 -75 -43 -41
-23 -110 -87 -110 -104 0 -6 -10 -27 -22 -46 -21 -31 -26 -33 -65 -29 -31 3
-49 -1 -71 -17 -16 -11 -40 -25 -53 -30 -13 -5 -62 -34 -108 -65 -46 -31 -89
-56 -95 -56 -6 -1 -29 -9 -51 -20 -22 -10 -44 -16 -49 -13 -5 4 -6 2 -3 -4 7
-11 -18 -24 -118 -60 -38 -14 -74 -29 -80 -34 -5 -5 -16 -9 -25 -9 -18 0 -87
-36 -108 -56 -8 -9 -20 -13 -27 -10 -7 2 -21 -4 -31 -15 -9 -10 -22 -19 -28
-19 -5 0 -33 -14 -62 -32 -35 -21 -54 -40 -59 -57 -21 -88 -22 -105 -9 -154
24 -93 43 -209 54 -347 10 -123 20 -184 52 -322 9 -36 8 -61 -2 -105 -13 -59
-23 -156 -39 -393 -13 -175 -68 -375 -152 -543 -16 -32 -29 -63 -29 -67 0 -27
-127 -283 -162 -328 -16 -19 -28 -38 -28 -41 0 -4 -19 -27 -42 -53 -24 -26
-50 -55 -59 -65 -9 -10 -32 -32 -52 -50 -21 -17 -37 -36 -37 -41 0 -10 -70
-77 -164 -157 -33 -27 -71 -60 -85 -73 -14 -12 -62 -47 -106 -77 -44 -30 -91
-63 -105 -75 -14 -11 -28 -20 -31 -20 -15 0 -69 -59 -69 -74 0 -16 26 -15 95
4 17 5 55 12 85 15 30 4 70 11 89 15 59 16 275 -36 372 -89 27 -14 95 -57 152
-95 83 -56 234 -155 647 -426 165 -108 233 -151 261 -167 19 -10 48 -27 64
-38 17 -12 55 -34 85 -50 30 -15 65 -38 78 -51 13 -12 60 -41 105 -64 45 -23
87 -45 92 -49 6 -5 32 -14 58 -21 38 -10 56 -10 88 -1 22 7 43 10 48 7 10 -7
71 16 71 26 0 4 -17 9 -37 9 -34 2 -35 2 -8 6 16 3 35 12 42 21 10 14 12 486
13 2360 0 1288 -3 2342 -7 2341 -5 0 -17 -6 -28 -12z"/>
<path d="M6779 4423 c-11 -13 -9 -25 10 -77 31 -79 37 -131 20 -165 -18 -33
-49 -60 -71 -61 -10 0 -18 -5 -18 -11 0 -16 -81 -4 -136 21 -57 25 -93 59
-147 138 -69 102 -115 94 -163 -30 -57 -145 -108 -191 -211 -190 -69 1 -130
33 -160 87 -25 45 -29 92 -12 179 18 99 -1 128 -55 85 -43 -34 -59 -76 -60
-159 -1 -65 3 -81 27 -122 51 -84 135 -141 230 -153 62 -8 87 -32 137 -133 24
-47 60 -101 83 -123 64 -62 148 -109 193 -109 34 0 45 7 99 63 65 66 95 130
95 204 0 66 53 183 82 183 17 0 106 74 117 97 17 37 33 143 25 176 -17 80 -60
130 -85 100z"/>
<path d="M8358 1603 c7 -3 16 -2 19 1 4 3 -2 6 -13 5 -11 0 -14 -3 -6 -6z"/>
<path d="M3920 570 c0 -5 7 -10 16 -10 8 0 12 5 9 10 -3 6 -10 10 -16 10 -5 0
-9 -4 -9 -10z"/>
<path d="M10720 550 c0 -5 9 -10 19 -10 11 0 23 5 26 10 4 6 -5 10 -19 10 -14
0 -26 -4 -26 -10z"/>
<path d="M4000 524 c0 -8 5 -12 10 -9 6 4 8 11 5 16 -9 14 -15 11 -15 -7z"/>
<path d="M4053 483 c-13 -2 -23 -11 -23 -19 0 -11 4 -12 19 -4 16 8 42 34 29
29 -2 -1 -13 -4 -25 -6z"/>
<path d="M10593 375 c-6 -14 -7 -27 -2 -31 7 -4 29 34 29 52 0 13 -17 0 -27
-21z"/>
<path d="M4035 370 c-4 -6 -3 -16 3 -22 6 -6 12 -6 17 2 4 6 3 16 -3 22 -6 6
-12 6 -17 -2z"/>
<path d="M10545 330 c-3 -5 -1 -10 4 -10 6 0 11 5 11 10 0 6 -2 10 -4 10 -3 0
-8 -4 -11 -10z"/>
<path d="M4159 209 c-6 -46 1 -119 10 -119 4 0 12 15 18 34 8 26 8 41 -2 60
-7 14 -15 33 -17 43 -2 10 -6 2 -9 -18z"/>
<path d="M10296 143 c-38 -39 -46 -63 -21 -63 8 0 15 -4 15 -9 0 -5 9 -11 20
-14 20 -5 60 22 60 40 0 6 7 16 15 23 8 7 15 23 15 36 0 21 -5 24 -34 24 -26
0 -42 -9 -70 -37z"/>
<path d="M10445 70 c3 -5 8 -10 11 -10 2 0 4 5 4 10 0 6 -5 10 -11 10 -5 0 -7
-4 -4 -10z"/>
</g>
</svg>
